Coordinates
version=1
nRows=7
nColumns=40
inDegrees=yes

Units are S.I. units (second, meters, Newtons, ...)
If the header above contains a line with 'inDegrees', this indicates whether rotational values are in degrees (yes) or radians (no).

endheader
time	pelvis_tilt	pelvis_list	pelvis_rotation	pelvis_tx	pelvis_ty	pelvis_tz	hip_flexion_r	hip_adduction_r	hip_rotation_r	knee_angle_r	knee_angle_r_beta	ankle_angle_r	subtalar_angle_r	mtp_angle_r	hip_flexion_l	hip_adduction_l	hip_rotation_l	knee_angle_l	knee_angle_l_beta	ankle_angle_l	subtalar_angle_l	mtp_angle_l	lumbar_extension	lumbar_bending	lumbar_rotation	arm_flex_r	arm_add_r	arm_rot_r	elbow_flex_r	pro_sup_r	wrist_flex_r	wrist_dev_r	arm_flex_l	arm_add_l	arm_rot_l	elbow_flex_l	pro_sup_l	wrist_flex_l	wrist_dev_l
      0.43000000	     -3.53292868	      8.15759093	    -83.75876703	      0.20764899	      0.86818249	      0.33088572	      3.45765667	      6.21064397	    -14.16973442	      9.16666413	      0.15998847	      1.29595975	      0.00000000	      0.00000000	     34.56283721	     -6.56063952	     -2.51384217	     33.55355096	      0.58561994	     -1.00019630	      0.00000000	      0.00000000	      1.32075585	      2.50284297	      1.74930600	      3.79421592	    -12.62247997	     -3.07548286	     52.47898096	     89.19420733	    -26.33129309	      5.37331627	    -11.68586289	    -10.35696263	      6.83250931	     29.64551022	     89.22707673	    -18.90571279	      5.12179787
      0.44000000	     -3.30823176	      8.00150217	    -84.08191189	      0.20746039	      0.86683925	      0.34179085	      2.28697097	      6.14333457	    -13.98654882	      8.85727329	      0.15458858	      1.85789895	      0.00000000	      0.00000000	     34.51780960	     -6.23274241	     -3.65191595	     29.90902598	      0.52201098	     -1.09072435	      0.00000000	      0.00000000	      0.99310285	      2.19564783	      2.12026349	      4.32016501	    -12.80562891	     -3.16937275	     53.46151898	     89.19388637	    -25.99569829	      5.34137542	    -12.08337001	    -10.38378802	      5.96076900	     29.66254260	     89.22985583	    -18.91646540	      4.88870347
      0.45000000	     -3.78070429	      8.24544101	    -84.04438834	      0.20774929	      0.86441105	      0.35245989	      1.68445644	      6.73582104	    -14.12382259	      8.63225015	      0.15066119	      2.28299177	      0.00000000	      0.00000000	     35.22816415	     -6.30147210	     -4.03103921	     26.63503382	      0.46486904	     -0.82946737	      0.00000000	      0.00000000	      1.23833171	      2.64304377	      2.21300463	      4.73489980	    -13.16035681	     -3.04026016	     54.46648253	     89.19079290	    -25.92307873	      5.20595631	    -12.41173952	    -10.35488870	      5.67343353	     29.46733014	     89.21542673	    -18.96968940	      4.89981832
      0.46000000	     -3.40039648	      8.14261146	    -84.33649458	      0.20805265	      0.86282705	      0.36331840	      0.60792432	      6.41802342	    -13.97659971	      8.42889365	      0.14711195	      2.78223651	      0.00000000	      0.00000000	     35.03953510	     -5.62044781	     -4.67442310	     22.79504102	      0.39784852	     -1.39809816	      0.00000000	      0.00000000	      0.93070696	      2.18623704	      2.58327686	      5.17890604	    -13.32117937	     -3.11833065	     55.32462307	     89.17901835	    -25.63905921	      5.22612749	    -12.60434555	    -10.32374705	      4.75393712	     29.27553616	     89.22502217	    -19.13232824	      4.63161605
      0.47000000	     -3.74817923	      8.34750625	    -84.44625448	      0.20847583	      0.86028569	      0.37404025	      0.00809314	      6.82846176	    -13.97319953	      8.33472755	      0.14546844	      3.16289133	      0.00000000	      0.00000000	     35.48633740	     -5.52158002	     -4.56104715	     19.46440882	      0.33971802	     -1.34653043	      0.00000000	      0.00000000	      1.08442221	      2.52047227	      2.84808965	      5.52741942	    -13.67326401	     -2.95979097	     56.20474259	     89.17070103	    -25.52415529	      5.13680260	    -12.76314726	    -10.24137507	      4.34466589	     28.97624779	     89.21655200	    -19.23750632	      4.61704946
      0.48000000	     -3.63338234	      8.15808148	    -84.60189122	      0.20906931	      0.85845494	      0.38505357	     -1.05501520	      6.74144768	    -13.91318084	      8.34396701	      0.14562970	      3.67184307	      0.00000000	      0.00000000	     35.25756943	     -5.03319578	     -4.74117375	     16.05602686	      0.28023053	     -2.01337124	      0.00000000	      0.00000000	      0.70379025	      2.38460713	      3.00046807	      5.97808037	    -13.81232864	     -2.95359198	     57.02367541	     89.17054723	    -25.17749299	      5.21463593	    -12.88388691	    -10.19167830	      3.70152489	     28.69449107	     89.22091100	    -19.52564151	      4.32480449
      0.49000000	     -3.96467047	      8.34174872	    -84.70957089	      0.20968922	      0.85580242	      0.39602810	     -1.62072687	      7.07333365	    -13.79367339	      8.44529626	      0.14739823	      4.03911511	      0.00000000	      0.00000000	     35.61561614	     -4.94493601	     -4.29156439	     13.17643899	      0.22997224	     -2.24386595	      0.00000000	      0.00000000	      0.85012904	      2.71966671	      3.21467027	      6.25672586	    -14.05522739	     -2.83922680	     57.79815097	     89.16669114	    -25.06653855	      5.15503642	    -12.94312659	    -10.09730782	      3.33402044	     28.27083200	     89.21668783	    -19.67650185	      4.33047410
